<mxfile host="app.diagrams.net" modified="2024-03-03T09:26:25.142Z" agent="Mozilla/5.0 (Windows NT 10.0; Win64; x64) AppleWebKit/537.36 (KHTML, like Gecko) Chrome/122.0.0.0 Safari/537.36" etag="LlNiOnmCNmW_6nKb0155" version="24.0.0" type="device">
  <diagram id="87BxgyQvodVHWM3heqh9" name="quuestructure">
    <mxGraphModel dx="2022" dy="743" grid="1" gridSize="10" guides="1" tooltips="1" connect="1" arrows="1" fold="1" page="1" pageScale="1" pageWidth="827" pageHeight="1169" background="#ffffff" math="0" shadow="0">
      <root>
        <mxCell id="0" />
        <mxCell id="1" parent="0" />
        <mxCell id="OGI2ZfjvUltXztTD1yBJ-9" style="edgeStyle=orthogonalEdgeStyle;rounded=0;orthogonalLoop=1;jettySize=auto;html=1;exitX=0.75;exitY=1;exitDx=0;exitDy=0;entryX=0;entryY=0.5;entryDx=0;entryDy=0;" parent="1" source="TeWx9pcrd8z7VmYvdYut-1" target="OGI2ZfjvUltXztTD1yBJ-6" edge="1">
          <mxGeometry relative="1" as="geometry" />
        </mxCell>
        <mxCell id="OGI2ZfjvUltXztTD1yBJ-14" value="routekey = &quot;&quot;" style="edgeLabel;html=1;align=center;verticalAlign=middle;resizable=0;points=[];fontStyle=1" parent="OGI2ZfjvUltXztTD1yBJ-9" vertex="1" connectable="0">
          <mxGeometry x="-0.1257" relative="1" as="geometry">
            <mxPoint x="3" y="-10" as="offset" />
          </mxGeometry>
        </mxCell>
        <mxCell id="TeWx9pcrd8z7VmYvdYut-1" value="order" style="rounded=0;whiteSpace=wrap;html=1;fontStyle=1;fontSize=14;fillColor=#CCCCCC;" parent="1" vertex="1">
          <mxGeometry x="-802" y="500" width="120" height="60" as="geometry" />
        </mxCell>
        <mxCell id="OGI2ZfjvUltXztTD1yBJ-18" style="edgeStyle=orthogonalEdgeStyle;rounded=0;orthogonalLoop=1;jettySize=auto;html=1;exitX=0;exitY=0.25;exitDx=0;exitDy=0;entryX=0;entryY=0.5;entryDx=0;entryDy=0;" parent="1" source="OGI2ZfjvUltXztTD1yBJ-1" target="OGI2ZfjvUltXztTD1yBJ-17" edge="1">
          <mxGeometry relative="1" as="geometry" />
        </mxCell>
        <mxCell id="OGI2ZfjvUltXztTD1yBJ-19" value="routekey = &quot;&quot;" style="edgeLabel;html=1;align=center;verticalAlign=middle;resizable=0;points=[];fontStyle=1" parent="OGI2ZfjvUltXztTD1yBJ-18" vertex="1" connectable="0">
          <mxGeometry x="-0.1273" y="-2" relative="1" as="geometry">
            <mxPoint as="offset" />
          </mxGeometry>
        </mxCell>
        <mxCell id="OGI2ZfjvUltXztTD1yBJ-27" style="edgeStyle=orthogonalEdgeStyle;rounded=0;orthogonalLoop=1;jettySize=auto;html=1;exitX=1;exitY=0.25;exitDx=0;exitDy=0;entryX=0;entryY=0.25;entryDx=0;entryDy=0;" parent="1" source="OGI2ZfjvUltXztTD1yBJ-1" target="OGI2ZfjvUltXztTD1yBJ-26" edge="1">
          <mxGeometry relative="1" as="geometry">
            <Array as="points">
              <mxPoint x="-150" y="509" />
              <mxPoint x="-150" y="410" />
              <mxPoint x="20" y="410" />
              <mxPoint x="20" y="504" />
            </Array>
          </mxGeometry>
        </mxCell>
        <mxCell id="OGI2ZfjvUltXztTD1yBJ-30" value="routekey = &quot;payment&quot;" style="edgeLabel;html=1;align=center;verticalAlign=middle;resizable=0;points=[];fontStyle=1" parent="OGI2ZfjvUltXztTD1yBJ-27" vertex="1" connectable="0">
          <mxGeometry x="-0.2962" relative="1" as="geometry">
            <mxPoint x="54" y="-14" as="offset" />
          </mxGeometry>
        </mxCell>
        <mxCell id="OGI2ZfjvUltXztTD1yBJ-28" style="edgeStyle=orthogonalEdgeStyle;rounded=0;orthogonalLoop=1;jettySize=auto;html=1;exitX=1;exitY=0.5;exitDx=0;exitDy=0;" parent="1" source="OGI2ZfjvUltXztTD1yBJ-1" target="OGI2ZfjvUltXztTD1yBJ-26" edge="1">
          <mxGeometry relative="1" as="geometry" />
        </mxCell>
        <mxCell id="OGI2ZfjvUltXztTD1yBJ-32" value="routekey = &quot;store&quot;" style="edgeLabel;html=1;align=center;verticalAlign=middle;resizable=0;points=[];fontStyle=1" parent="OGI2ZfjvUltXztTD1yBJ-28" vertex="1" connectable="0">
          <mxGeometry x="-0.2328" y="1" relative="1" as="geometry">
            <mxPoint x="15" y="-13" as="offset" />
          </mxGeometry>
        </mxCell>
        <mxCell id="OGI2ZfjvUltXztTD1yBJ-29" style="edgeStyle=orthogonalEdgeStyle;rounded=0;orthogonalLoop=1;jettySize=auto;html=1;exitX=1;exitY=0.75;exitDx=0;exitDy=0;entryX=0;entryY=0.75;entryDx=0;entryDy=0;" parent="1" source="OGI2ZfjvUltXztTD1yBJ-1" target="OGI2ZfjvUltXztTD1yBJ-26" edge="1">
          <mxGeometry relative="1" as="geometry">
            <Array as="points">
              <mxPoint x="-150" y="539" />
              <mxPoint x="-150" y="630" />
              <mxPoint x="20" y="630" />
              <mxPoint x="20" y="544" />
            </Array>
          </mxGeometry>
        </mxCell>
        <mxCell id="OGI2ZfjvUltXztTD1yBJ-31" value="routekey = &quot;delivery&quot;" style="edgeLabel;html=1;align=center;verticalAlign=middle;resizable=0;points=[];fontStyle=1" parent="OGI2ZfjvUltXztTD1yBJ-29" vertex="1" connectable="0">
          <mxGeometry x="-0.2152" y="1" relative="1" as="geometry">
            <mxPoint y="16" as="offset" />
          </mxGeometry>
        </mxCell>
        <mxCell id="cz1an13Cb-ffX7jSRgFZ-5" style="edgeStyle=orthogonalEdgeStyle;rounded=0;orthogonalLoop=1;jettySize=auto;html=1;exitX=0.5;exitY=1;exitDx=0;exitDy=0;entryX=0;entryY=0.82;entryDx=0;entryDy=0;entryPerimeter=0;" parent="1" source="OGI2ZfjvUltXztTD1yBJ-1" target="cz1an13Cb-ffX7jSRgFZ-3" edge="1">
          <mxGeometry relative="1" as="geometry">
            <Array as="points">
              <mxPoint x="-234" y="960" />
              <mxPoint x="948" y="960" />
              <mxPoint x="948" y="550" />
              <mxPoint x="1060" y="550" />
              <mxPoint x="1060" y="486" />
            </Array>
          </mxGeometry>
        </mxCell>
        <mxCell id="cz1an13Cb-ffX7jSRgFZ-31" value="routekey = &quot;orchestra&quot;" style="edgeLabel;html=1;align=center;verticalAlign=middle;resizable=0;points=[];" parent="cz1an13Cb-ffX7jSRgFZ-5" vertex="1" connectable="0">
          <mxGeometry x="-0.2671" y="2" relative="1" as="geometry">
            <mxPoint x="844" y="-282" as="offset" />
          </mxGeometry>
        </mxCell>
        <mxCell id="OGI2ZfjvUltXztTD1yBJ-1" value="orchestra" style="rounded=0;whiteSpace=wrap;html=1;fontSize=14;fontStyle=1;fillColor=#CCCCCC;" parent="1" vertex="1">
          <mxGeometry x="-294" y="494" width="120" height="60" as="geometry" />
        </mxCell>
        <mxCell id="OGI2ZfjvUltXztTD1yBJ-48" style="edgeStyle=orthogonalEdgeStyle;rounded=0;orthogonalLoop=1;jettySize=auto;html=1;exitX=1;exitY=0.25;exitDx=0;exitDy=0;entryX=0;entryY=0.25;entryDx=0;entryDy=0;" parent="1" source="OGI2ZfjvUltXztTD1yBJ-2" target="OGI2ZfjvUltXztTD1yBJ-46" edge="1">
          <mxGeometry relative="1" as="geometry" />
        </mxCell>
        <mxCell id="OGI2ZfjvUltXztTD1yBJ-56" value="routekey = &quot;&quot;" style="edgeLabel;html=1;align=center;verticalAlign=middle;resizable=0;points=[];fontStyle=1" parent="OGI2ZfjvUltXztTD1yBJ-48" vertex="1" connectable="0">
          <mxGeometry x="-0.4288" y="1" relative="1" as="geometry">
            <mxPoint x="-40" y="-21" as="offset" />
          </mxGeometry>
        </mxCell>
        <mxCell id="OGI2ZfjvUltXztTD1yBJ-2" value="payment" style="rounded=0;whiteSpace=wrap;html=1;fontStyle=1;fontSize=14;fillColor=#CCCCCC;" parent="1" vertex="1">
          <mxGeometry x="369" y="381" width="120" height="60" as="geometry" />
        </mxCell>
        <mxCell id="OGI2ZfjvUltXztTD1yBJ-49" style="edgeStyle=orthogonalEdgeStyle;rounded=0;orthogonalLoop=1;jettySize=auto;html=1;exitX=1;exitY=0.25;exitDx=0;exitDy=0;entryX=0;entryY=0.5;entryDx=0;entryDy=0;" parent="1" source="OGI2ZfjvUltXztTD1yBJ-3" target="OGI2ZfjvUltXztTD1yBJ-46" edge="1">
          <mxGeometry relative="1" as="geometry">
            <Array as="points">
              <mxPoint x="538" y="509" />
              <mxPoint x="538" y="276" />
            </Array>
          </mxGeometry>
        </mxCell>
        <mxCell id="OGI2ZfjvUltXztTD1yBJ-57" value="routekey = &quot;&quot;" style="edgeLabel;html=1;align=center;verticalAlign=middle;resizable=0;points=[];fontStyle=1" parent="OGI2ZfjvUltXztTD1yBJ-49" vertex="1" connectable="0">
          <mxGeometry x="-0.139" y="-2" relative="1" as="geometry">
            <mxPoint x="-2" y="175" as="offset" />
          </mxGeometry>
        </mxCell>
        <mxCell id="w-dC9MA27nYraJP2hDXT-7" style="edgeStyle=orthogonalEdgeStyle;rounded=0;orthogonalLoop=1;jettySize=auto;html=1;exitX=1;exitY=0.5;exitDx=0;exitDy=0;entryX=0;entryY=0.5;entryDx=0;entryDy=0;" edge="1" parent="1" source="OGI2ZfjvUltXztTD1yBJ-3" target="w-dC9MA27nYraJP2hDXT-3">
          <mxGeometry relative="1" as="geometry">
            <Array as="points">
              <mxPoint x="818" y="524" />
              <mxPoint x="818" y="870" />
            </Array>
          </mxGeometry>
        </mxCell>
        <mxCell id="w-dC9MA27nYraJP2hDXT-9" style="edgeStyle=orthogonalEdgeStyle;rounded=0;orthogonalLoop=1;jettySize=auto;html=1;exitX=1;exitY=0.75;exitDx=0;exitDy=0;entryX=0;entryY=0.5;entryDx=0;entryDy=0;" edge="1" parent="1" source="OGI2ZfjvUltXztTD1yBJ-3" target="w-dC9MA27nYraJP2hDXT-8">
          <mxGeometry relative="1" as="geometry">
            <Array as="points">
              <mxPoint x="618" y="539" />
            </Array>
          </mxGeometry>
        </mxCell>
        <mxCell id="OGI2ZfjvUltXztTD1yBJ-3" value="store" style="rounded=0;whiteSpace=wrap;html=1;fontStyle=1;fontSize=14;fillColor=#CCCCCC;" parent="1" vertex="1">
          <mxGeometry x="369" y="494" width="120" height="60" as="geometry" />
        </mxCell>
        <mxCell id="OGI2ZfjvUltXztTD1yBJ-50" style="edgeStyle=orthogonalEdgeStyle;rounded=0;orthogonalLoop=1;jettySize=auto;html=1;exitX=1;exitY=0.5;exitDx=0;exitDy=0;entryX=0;entryY=0.75;entryDx=0;entryDy=0;" parent="1" source="OGI2ZfjvUltXztTD1yBJ-4" target="OGI2ZfjvUltXztTD1yBJ-46" edge="1">
          <mxGeometry relative="1" as="geometry">
            <Array as="points">
              <mxPoint x="668" y="739" />
              <mxPoint x="668" y="256" />
            </Array>
          </mxGeometry>
        </mxCell>
        <mxCell id="OGI2ZfjvUltXztTD1yBJ-58" value="routekey = &quot;&quot;" style="edgeLabel;html=1;align=center;verticalAlign=middle;resizable=0;points=[];fontStyle=1" parent="OGI2ZfjvUltXztTD1yBJ-50" vertex="1" connectable="0">
          <mxGeometry x="-0.2675" y="1" relative="1" as="geometry">
            <mxPoint x="41" y="152" as="offset" />
          </mxGeometry>
        </mxCell>
        <mxCell id="cz1an13Cb-ffX7jSRgFZ-9" style="edgeStyle=orthogonalEdgeStyle;rounded=0;orthogonalLoop=1;jettySize=auto;html=1;exitX=1;exitY=0.75;exitDx=0;exitDy=0;entryX=0;entryY=0.61;entryDx=0;entryDy=0;entryPerimeter=0;" parent="1" source="OGI2ZfjvUltXztTD1yBJ-4" target="cz1an13Cb-ffX7jSRgFZ-3" edge="1">
          <mxGeometry relative="1" as="geometry">
            <mxPoint x="-222" y="667.4285714285714" as="targetPoint" />
            <Array as="points">
              <mxPoint x="848" y="754" />
              <mxPoint x="848" y="510" />
              <mxPoint x="990" y="510" />
              <mxPoint x="990" y="469" />
            </Array>
          </mxGeometry>
        </mxCell>
        <mxCell id="cz1an13Cb-ffX7jSRgFZ-32" value="routekey = &quot;delivery&quot;" style="edgeLabel;html=1;align=center;verticalAlign=middle;resizable=0;points=[];" parent="cz1an13Cb-ffX7jSRgFZ-9" vertex="1" connectable="0">
          <mxGeometry x="0.1156" y="5" relative="1" as="geometry">
            <mxPoint x="57" y="-128" as="offset" />
          </mxGeometry>
        </mxCell>
        <mxCell id="OGI2ZfjvUltXztTD1yBJ-4" value="delivery" style="rounded=0;whiteSpace=wrap;html=1;fontStyle=1;fontSize=14;fillColor=#CCCCCC;" parent="1" vertex="1">
          <mxGeometry x="368" y="709" width="120" height="60" as="geometry" />
        </mxCell>
        <mxCell id="OGI2ZfjvUltXztTD1yBJ-16" style="edgeStyle=orthogonalEdgeStyle;rounded=0;orthogonalLoop=1;jettySize=auto;html=1;exitX=1;exitY=0.5;exitDx=0;exitDy=0;entryX=0;entryY=0.75;entryDx=0;entryDy=0;" parent="1" source="OGI2ZfjvUltXztTD1yBJ-5" target="OGI2ZfjvUltXztTD1yBJ-1" edge="1">
          <mxGeometry relative="1" as="geometry" />
        </mxCell>
        <mxCell id="OGI2ZfjvUltXztTD1yBJ-5" value="&lt;div style=&quot;&quot;&gt;&lt;pre style=&quot;font-family:&#39;JetBrains Mono&#39;,monospace;font-size:9,8pt;&quot;&gt;reqorders&lt;/pre&gt;&lt;/div&gt;" style="shape=step;perimeter=stepPerimeter;whiteSpace=wrap;html=1;fixedSize=1;labelBackgroundColor=default;fontColor=#000000;fontStyle=1" parent="1" vertex="1">
          <mxGeometry x="-455" y="571" width="120" height="50" as="geometry" />
        </mxCell>
        <mxCell id="OGI2ZfjvUltXztTD1yBJ-7" style="edgeStyle=orthogonalEdgeStyle;rounded=0;orthogonalLoop=1;jettySize=auto;html=1;exitX=1;exitY=0.5;exitDx=0;exitDy=0;entryX=0;entryY=0.5;entryDx=0;entryDy=0;" parent="1" source="OGI2ZfjvUltXztTD1yBJ-6" target="OGI2ZfjvUltXztTD1yBJ-5" edge="1">
          <mxGeometry relative="1" as="geometry" />
        </mxCell>
        <mxCell id="OGI2ZfjvUltXztTD1yBJ-15" value="binding &lt;br&gt;routekey = &quot;&quot;" style="edgeLabel;html=1;align=center;verticalAlign=middle;resizable=0;points=[];fontStyle=1" parent="OGI2ZfjvUltXztTD1yBJ-7" vertex="1" connectable="0">
          <mxGeometry x="-0.2411" y="2" relative="1" as="geometry">
            <mxPoint x="5" y="-20" as="offset" />
          </mxGeometry>
        </mxCell>
        <mxCell id="OGI2ZfjvUltXztTD1yBJ-6" value="&lt;div style=&quot;&quot;&gt;&lt;pre style=&quot;font-family:&#39;JetBrains Mono&#39;,monospace;font-size:9,8pt;&quot;&gt;&lt;br&gt;&lt;/pre&gt;&lt;/div&gt;" style="triangle;whiteSpace=wrap;html=1;labelBackgroundColor=default;fontColor=#000000;fontStyle=1" parent="1" vertex="1">
          <mxGeometry x="-635" y="556" width="70" height="80" as="geometry" />
        </mxCell>
        <mxCell id="OGI2ZfjvUltXztTD1yBJ-23" style="edgeStyle=orthogonalEdgeStyle;rounded=0;orthogonalLoop=1;jettySize=auto;html=1;exitX=1;exitY=0.5;exitDx=0;exitDy=0;entryX=0;entryY=0.5;entryDx=0;entryDy=0;fontStyle=1" parent="1" source="OGI2ZfjvUltXztTD1yBJ-17" target="OGI2ZfjvUltXztTD1yBJ-20" edge="1">
          <mxGeometry relative="1" as="geometry" />
        </mxCell>
        <mxCell id="OGI2ZfjvUltXztTD1yBJ-25" value="binding&lt;br&gt;routekey = &quot;&quot;" style="edgeLabel;html=1;align=center;verticalAlign=middle;resizable=0;points=[];fontStyle=1" parent="OGI2ZfjvUltXztTD1yBJ-23" vertex="1" connectable="0">
          <mxGeometry x="-0.1906" y="1" relative="1" as="geometry">
            <mxPoint x="5" y="-17" as="offset" />
          </mxGeometry>
        </mxCell>
        <mxCell id="OGI2ZfjvUltXztTD1yBJ-17" value="&lt;div style=&quot;background-color:#1e1f22;color:#bcbec4&quot;&gt;&lt;pre style=&quot;font-family:&#39;JetBrains Mono&#39;,monospace;font-size:9,8pt;&quot;&gt;&lt;pre style=&quot;font-family:&#39;JetBrains Mono&#39;,monospace;font-size:9,8pt;&quot;&gt;&lt;br&gt;&lt;/pre&gt;&lt;/pre&gt;&lt;/div&gt;" style="triangle;whiteSpace=wrap;html=1;direction=south;rotation=90;" parent="1" vertex="1">
          <mxGeometry x="-455" y="402" width="80" height="80" as="geometry" />
        </mxCell>
        <mxCell id="OGI2ZfjvUltXztTD1yBJ-24" style="edgeStyle=orthogonalEdgeStyle;rounded=0;orthogonalLoop=1;jettySize=auto;html=1;exitX=1;exitY=0.5;exitDx=0;exitDy=0;entryX=0.5;entryY=0;entryDx=0;entryDy=0;" parent="1" source="OGI2ZfjvUltXztTD1yBJ-20" target="TeWx9pcrd8z7VmYvdYut-1" edge="1">
          <mxGeometry relative="1" as="geometry" />
        </mxCell>
        <mxCell id="OGI2ZfjvUltXztTD1yBJ-20" value="" style="shape=step;perimeter=stepPerimeter;whiteSpace=wrap;html=1;fixedSize=1;rotation=-180;" parent="1" vertex="1">
          <mxGeometry x="-675" y="419" width="115" height="46" as="geometry" />
        </mxCell>
        <mxCell id="OGI2ZfjvUltXztTD1yBJ-21" value="&lt;div style=&quot;&quot;&gt;&lt;pre style=&quot;font-family:&#39;JetBrains Mono&#39;,monospace;font-size:9,8pt;&quot;&gt;resorders&lt;/pre&gt;&lt;/div&gt;" style="text;strokeColor=none;align=center;fillColor=none;html=1;verticalAlign=middle;whiteSpace=wrap;rounded=0;fontColor=#000000;labelBackgroundColor=default;fontStyle=1" parent="1" vertex="1">
          <mxGeometry x="-652" y="427" width="60" height="30" as="geometry" />
        </mxCell>
        <mxCell id="OGI2ZfjvUltXztTD1yBJ-22" value="&lt;pre style=&quot;border-color: var(--border-color); font-family: &amp;quot;JetBrains Mono&amp;quot;, monospace;&quot;&gt;&lt;span style=&quot;background-color: rgb(255, 255, 255);&quot;&gt;&lt;b&gt;resorders&lt;/b&gt;&lt;/span&gt;&lt;b style=&quot;white-space: normal;&quot;&gt;exchange&lt;/b&gt;&lt;/pre&gt;" style="text;strokeColor=none;align=center;fillColor=none;html=1;verticalAlign=middle;whiteSpace=wrap;rounded=0;fontColor=#000000;" parent="1" vertex="1">
          <mxGeometry x="-422" y="336" width="142" height="30" as="geometry" />
        </mxCell>
        <mxCell id="OGI2ZfjvUltXztTD1yBJ-33" style="edgeStyle=orthogonalEdgeStyle;rounded=0;orthogonalLoop=1;jettySize=auto;html=1;exitX=0.5;exitY=0;exitDx=0;exitDy=0;entryX=0;entryY=0.5;entryDx=0;entryDy=0;" parent="1" source="OGI2ZfjvUltXztTD1yBJ-26" target="OGI2ZfjvUltXztTD1yBJ-34" edge="1">
          <mxGeometry relative="1" as="geometry">
            <mxPoint x="150.79999999999995" y="416" as="targetPoint" />
            <Array as="points">
              <mxPoint x="93" y="411" />
            </Array>
          </mxGeometry>
        </mxCell>
        <mxCell id="OGI2ZfjvUltXztTD1yBJ-42" value="binding&lt;br&gt;routekey = &quot;payment&quot;" style="edgeLabel;html=1;align=center;verticalAlign=middle;resizable=0;points=[];fontStyle=1" parent="OGI2ZfjvUltXztTD1yBJ-33" vertex="1" connectable="0">
          <mxGeometry x="0.2311" y="1" relative="1" as="geometry">
            <mxPoint x="14" y="-19" as="offset" />
          </mxGeometry>
        </mxCell>
        <mxCell id="OGI2ZfjvUltXztTD1yBJ-37" style="edgeStyle=orthogonalEdgeStyle;rounded=0;orthogonalLoop=1;jettySize=auto;html=1;exitX=1;exitY=0.5;exitDx=0;exitDy=0;entryX=0;entryY=0.5;entryDx=0;entryDy=0;" parent="1" source="OGI2ZfjvUltXztTD1yBJ-26" target="OGI2ZfjvUltXztTD1yBJ-35" edge="1">
          <mxGeometry relative="1" as="geometry" />
        </mxCell>
        <mxCell id="OGI2ZfjvUltXztTD1yBJ-43" value="binding&lt;br&gt;routekey = &quot;store&quot;" style="edgeLabel;html=1;align=center;verticalAlign=middle;resizable=0;points=[];fontStyle=1" parent="OGI2ZfjvUltXztTD1yBJ-37" vertex="1" connectable="0">
          <mxGeometry x="-0.4016" y="-3" relative="1" as="geometry">
            <mxPoint x="13" y="-21" as="offset" />
          </mxGeometry>
        </mxCell>
        <mxCell id="OGI2ZfjvUltXztTD1yBJ-38" style="edgeStyle=orthogonalEdgeStyle;rounded=0;orthogonalLoop=1;jettySize=auto;html=1;exitX=0.5;exitY=1;exitDx=0;exitDy=0;entryX=0;entryY=0.5;entryDx=0;entryDy=0;" parent="1" source="OGI2ZfjvUltXztTD1yBJ-26" target="OGI2ZfjvUltXztTD1yBJ-36" edge="1">
          <mxGeometry relative="1" as="geometry">
            <Array as="points">
              <mxPoint x="93" y="739" />
            </Array>
          </mxGeometry>
        </mxCell>
        <mxCell id="OGI2ZfjvUltXztTD1yBJ-44" value="binding&lt;br&gt;routekey = &quot;delivery&quot;" style="edgeLabel;html=1;align=center;verticalAlign=middle;resizable=0;points=[];fontStyle=1" parent="OGI2ZfjvUltXztTD1yBJ-38" vertex="1" connectable="0">
          <mxGeometry x="0.2956" y="1" relative="1" as="geometry">
            <mxPoint y="19" as="offset" />
          </mxGeometry>
        </mxCell>
        <mxCell id="OGI2ZfjvUltXztTD1yBJ-26" value="&lt;div style=&quot;font-size: 10px;&quot;&gt;&lt;pre style=&quot;font-family:&#39;JetBrains Mono&#39;,monospace;font-size:9,8pt;&quot;&gt;&lt;br&gt;&lt;/pre&gt;&lt;/div&gt;" style="triangle;whiteSpace=wrap;html=1;labelBackgroundColor=default;fontColor=#000000;fontStyle=1" parent="1" vertex="1">
          <mxGeometry x="58" y="484" width="70" height="80" as="geometry" />
        </mxCell>
        <mxCell id="OGI2ZfjvUltXztTD1yBJ-39" style="edgeStyle=orthogonalEdgeStyle;rounded=0;orthogonalLoop=1;jettySize=auto;html=1;exitX=1;exitY=0.5;exitDx=0;exitDy=0;" parent="1" source="OGI2ZfjvUltXztTD1yBJ-34" target="OGI2ZfjvUltXztTD1yBJ-2" edge="1">
          <mxGeometry relative="1" as="geometry" />
        </mxCell>
        <mxCell id="OGI2ZfjvUltXztTD1yBJ-34" value="&lt;div style=&quot;&quot;&gt;&lt;pre style=&quot;font-family:&#39;JetBrains Mono&#39;,monospace;font-size:9,8pt;&quot;&gt;reqpayment&lt;/pre&gt;&lt;pre style=&quot;font-family:&#39;JetBrains Mono&#39;,monospace;font-size:9,8pt;&quot;&gt;confirms&lt;/pre&gt;&lt;/div&gt;" style="shape=step;perimeter=stepPerimeter;whiteSpace=wrap;html=1;fixedSize=1;labelBackgroundColor=default;fontColor=#000000;fontStyle=1" parent="1" vertex="1">
          <mxGeometry x="198" y="371" width="120" height="80" as="geometry" />
        </mxCell>
        <mxCell id="OGI2ZfjvUltXztTD1yBJ-40" style="edgeStyle=orthogonalEdgeStyle;rounded=0;orthogonalLoop=1;jettySize=auto;html=1;exitX=1;exitY=0.5;exitDx=0;exitDy=0;" parent="1" source="OGI2ZfjvUltXztTD1yBJ-35" target="OGI2ZfjvUltXztTD1yBJ-3" edge="1">
          <mxGeometry relative="1" as="geometry" />
        </mxCell>
        <mxCell id="OGI2ZfjvUltXztTD1yBJ-35" value="&lt;div style=&quot;&quot;&gt;&lt;pre style=&quot;font-family:&#39;JetBrains Mono&#39;,monospace;font-size:9,8pt;&quot;&gt;reqstore&lt;/pre&gt;&lt;pre style=&quot;font-family:&#39;JetBrains Mono&#39;,monospace;font-size:9,8pt;&quot;&gt;confirms&lt;/pre&gt;&lt;/div&gt;" style="shape=step;perimeter=stepPerimeter;whiteSpace=wrap;html=1;fixedSize=1;labelBackgroundColor=default;fontColor=#000000;fontStyle=1" parent="1" vertex="1">
          <mxGeometry x="198" y="484" width="120" height="80" as="geometry" />
        </mxCell>
        <mxCell id="OGI2ZfjvUltXztTD1yBJ-41" style="edgeStyle=orthogonalEdgeStyle;rounded=0;orthogonalLoop=1;jettySize=auto;html=1;exitX=1;exitY=0.5;exitDx=0;exitDy=0;entryX=0;entryY=0.5;entryDx=0;entryDy=0;" parent="1" source="OGI2ZfjvUltXztTD1yBJ-36" target="OGI2ZfjvUltXztTD1yBJ-4" edge="1">
          <mxGeometry relative="1" as="geometry" />
        </mxCell>
        <mxCell id="OGI2ZfjvUltXztTD1yBJ-36" value="&lt;div style=&quot;&quot;&gt;&lt;pre style=&quot;font-family:&#39;JetBrains Mono&#39;,monospace;font-size:9,8pt;&quot;&gt;reqdelivery&lt;/pre&gt;&lt;pre style=&quot;font-family:&#39;JetBrains Mono&#39;,monospace;font-size:9,8pt;&quot;&gt;confirms&lt;/pre&gt;&lt;/div&gt;" style="shape=step;perimeter=stepPerimeter;whiteSpace=wrap;html=1;fixedSize=1;labelBackgroundColor=default;fontColor=#000000;fontStyle=1" parent="1" vertex="1">
          <mxGeometry x="198" y="699" width="120" height="80" as="geometry" />
        </mxCell>
        <mxCell id="OGI2ZfjvUltXztTD1yBJ-53" style="edgeStyle=orthogonalEdgeStyle;rounded=0;orthogonalLoop=1;jettySize=auto;html=1;exitX=1;exitY=0.5;exitDx=0;exitDy=0;entryX=0;entryY=0.5;entryDx=0;entryDy=0;" parent="1" source="OGI2ZfjvUltXztTD1yBJ-46" target="OGI2ZfjvUltXztTD1yBJ-51" edge="1">
          <mxGeometry relative="1" as="geometry" />
        </mxCell>
        <mxCell id="OGI2ZfjvUltXztTD1yBJ-59" value="binding&lt;br style=&quot;border-color: var(--border-color);&quot;&gt;routekey = &quot;&quot;" style="edgeLabel;html=1;align=center;verticalAlign=middle;resizable=0;points=[];fontStyle=1" parent="OGI2ZfjvUltXztTD1yBJ-53" vertex="1" connectable="0">
          <mxGeometry x="0.0865" y="-1" relative="1" as="geometry">
            <mxPoint y="-19" as="offset" />
          </mxGeometry>
        </mxCell>
        <mxCell id="OGI2ZfjvUltXztTD1yBJ-46" value="&lt;div style=&quot;background-color:#1e1f22;color:#bcbec4&quot;&gt;&lt;pre style=&quot;font-family:&#39;JetBrains Mono&#39;,monospace;font-size:9,8pt;&quot;&gt;&lt;pre style=&quot;font-family:&#39;JetBrains Mono&#39;,monospace;font-size:9,8pt;&quot;&gt;&lt;br&gt;&lt;/pre&gt;&lt;/pre&gt;&lt;/div&gt;" style="triangle;whiteSpace=wrap;html=1;direction=south;rotation=90;" parent="1" vertex="1">
          <mxGeometry x="198" y="236" width="80" height="80" as="geometry" />
        </mxCell>
        <mxCell id="OGI2ZfjvUltXztTD1yBJ-47" value="&lt;pre style=&quot;border-color: var(--border-color); font-family: &amp;quot;JetBrains Mono&amp;quot;, monospace;&quot;&gt;resconfirmexchange&lt;/pre&gt;" style="text;strokeColor=none;align=center;fillColor=none;html=1;verticalAlign=middle;whiteSpace=wrap;rounded=0;labelBackgroundColor=default;fontColor=#000000;fontStyle=1" parent="1" vertex="1">
          <mxGeometry x="168" y="319" width="180" height="30" as="geometry" />
        </mxCell>
        <mxCell id="OGI2ZfjvUltXztTD1yBJ-52" style="edgeStyle=orthogonalEdgeStyle;rounded=0;orthogonalLoop=1;jettySize=auto;html=1;exitX=1;exitY=0.5;exitDx=0;exitDy=0;entryX=0.5;entryY=0;entryDx=0;entryDy=0;" parent="1" source="OGI2ZfjvUltXztTD1yBJ-51" target="OGI2ZfjvUltXztTD1yBJ-1" edge="1">
          <mxGeometry relative="1" as="geometry" />
        </mxCell>
        <mxCell id="OGI2ZfjvUltXztTD1yBJ-51" value="" style="shape=step;perimeter=stepPerimeter;whiteSpace=wrap;html=1;fixedSize=1;rotation=-180;labelBackgroundColor=default;fontColor=#000000;" parent="1" vertex="1">
          <mxGeometry x="-174" y="236" width="115" height="80" as="geometry" />
        </mxCell>
        <mxCell id="OGI2ZfjvUltXztTD1yBJ-54" value="&lt;div style=&quot;&quot;&gt;&lt;pre style=&quot;font-family:&#39;JetBrains Mono&#39;,monospace;font-size:9,8pt;&quot;&gt;resconfirms&lt;/pre&gt;&lt;/div&gt;" style="text;strokeColor=none;align=center;fillColor=none;html=1;verticalAlign=middle;whiteSpace=wrap;rounded=0;fontColor=#000000;labelBackgroundColor=default;fontStyle=1" parent="1" vertex="1">
          <mxGeometry x="-152" y="261" width="60" height="30" as="geometry" />
        </mxCell>
        <mxCell id="gpQBhNdt1jSUHh6wSbSz-1" value="&lt;pre style=&quot;border-color: var(--border-color); color: rgb(0, 0, 0); font-size: 12px; font-style: normal; font-variant-ligatures: normal; font-variant-caps: normal; font-weight: 700; letter-spacing: normal; orphans: 2; text-align: center; text-indent: 0px; text-transform: none; widows: 2; word-spacing: 0px; -webkit-text-stroke-width: 0px; background-color: rgb(255, 255, 255); text-decoration-thickness: initial; text-decoration-style: initial; text-decoration-color: initial; font-family: &amp;quot;JetBrains Mono&amp;quot;, monospace;&quot;&gt;reqordersexchange&lt;/pre&gt;" style="text;whiteSpace=wrap;html=1;" parent="1" vertex="1">
          <mxGeometry x="-660" y="621" width="120" height="30" as="geometry" />
        </mxCell>
        <mxCell id="gpQBhNdt1jSUHh6wSbSz-2" value="&lt;font style=&quot;font-size: 12px;&quot;&gt;&lt;span style=&quot;font-size: 12px;&quot;&gt;reqconfirmexchange&lt;/span&gt;&lt;/font&gt;" style="text;whiteSpace=wrap;html=1;fontStyle=1;fontSize=12;" parent="1" vertex="1">
          <mxGeometry x="32" y="464" width="150" height="30" as="geometry" />
        </mxCell>
        <mxCell id="cz1an13Cb-ffX7jSRgFZ-6" style="edgeStyle=orthogonalEdgeStyle;rounded=0;orthogonalLoop=1;jettySize=auto;html=1;exitX=1;exitY=0.25;exitDx=0;exitDy=0;entryX=0;entryY=0.17;entryDx=0;entryDy=0;entryPerimeter=0;" parent="1" target="cz1an13Cb-ffX7jSRgFZ-3" edge="1">
          <mxGeometry relative="1" as="geometry">
            <mxPoint x="1085" y="435.9999999999999" as="targetPoint" />
            <Array as="points">
              <mxPoint x="948" y="113" />
              <mxPoint x="948" y="434" />
              <mxPoint x="1085" y="434" />
            </Array>
            <mxPoint x="-171.99999999999977" y="113.4" as="sourcePoint" />
          </mxGeometry>
        </mxCell>
        <mxCell id="cz1an13Cb-ffX7jSRgFZ-29" value="routekey = &quot;auth&quot;" style="edgeLabel;html=1;align=center;verticalAlign=middle;resizable=0;points=[];" parent="cz1an13Cb-ffX7jSRgFZ-6" vertex="1" connectable="0">
          <mxGeometry x="0.7468" y="2" relative="1" as="geometry">
            <mxPoint x="50" y="-56" as="offset" />
          </mxGeometry>
        </mxCell>
        <mxCell id="cz1an13Cb-ffX7jSRgFZ-24" style="edgeStyle=orthogonalEdgeStyle;rounded=0;orthogonalLoop=1;jettySize=auto;html=1;entryX=0;entryY=0.5;entryDx=0;entryDy=0;exitX=1;exitY=0.5;exitDx=0;exitDy=0;exitPerimeter=0;" parent="1" source="cz1an13Cb-ffX7jSRgFZ-26" target="cz1an13Cb-ffX7jSRgFZ-22" edge="1">
          <mxGeometry relative="1" as="geometry">
            <mxPoint x="798" y="676" as="sourcePoint" />
            <Array as="points">
              <mxPoint x="858" y="201" />
              <mxPoint x="858" y="411" />
            </Array>
          </mxGeometry>
        </mxCell>
        <mxCell id="cz1an13Cb-ffX7jSRgFZ-27" style="edgeStyle=orthogonalEdgeStyle;rounded=0;orthogonalLoop=1;jettySize=auto;html=1;exitX=1;exitY=0.75;exitDx=0;exitDy=0;entryX=0.006;entryY=0.483;entryDx=0;entryDy=0;entryPerimeter=0;" parent="1" source="cz1an13Cb-ffX7jSRgFZ-1" target="cz1an13Cb-ffX7jSRgFZ-26" edge="1">
          <mxGeometry relative="1" as="geometry">
            <Array as="points">
              <mxPoint x="-92" y="141" />
              <mxPoint x="-92" y="201" />
            </Array>
          </mxGeometry>
        </mxCell>
        <mxCell id="cz1an13Cb-ffX7jSRgFZ-33" value="rroutekey = &quot;&quot;" style="edgeLabel;html=1;align=center;verticalAlign=middle;resizable=0;points=[];" parent="cz1an13Cb-ffX7jSRgFZ-27" vertex="1" connectable="0">
          <mxGeometry x="0.1096" relative="1" as="geometry">
            <mxPoint as="offset" />
          </mxGeometry>
        </mxCell>
        <mxCell id="cz1an13Cb-ffX7jSRgFZ-1" value="auth" style="rounded=0;whiteSpace=wrap;html=1;fontSize=14;fontStyle=1;fillColor=#CCCCCC;" parent="1" vertex="1">
          <mxGeometry x="-292" y="96" width="120" height="60" as="geometry" />
        </mxCell>
        <mxCell id="cz1an13Cb-ffX7jSRgFZ-2" value="notification" style="rounded=0;whiteSpace=wrap;html=1;fontSize=14;fontStyle=1;fillColor=#CCCCCC;points=[[0,0,0,0,0],[0,0.2,0,0,0],[0,0.4,0,0,0],[0,0.6,0,0,0],[0,0.8,0,0,0],[0,1,0,0,0],[0.25,0,0,0,0],[0.25,1,0,0,0],[0.5,0,0,0,0],[0.5,1,0,0,0],[0.75,0,0,0,0],[0.75,1,0,0,0],[1,0,0,0,0],[1,0.25,0,0,0],[1,0.5,0,0,0],[1,0.75,0,0,0],[1,1,0,0,0]];" parent="1" vertex="1">
          <mxGeometry x="1517" y="444" width="120" height="60" as="geometry" />
        </mxCell>
        <mxCell id="cz1an13Cb-ffX7jSRgFZ-10" style="edgeStyle=orthogonalEdgeStyle;rounded=0;orthogonalLoop=1;jettySize=auto;html=1;exitX=0.64;exitY=0.69;exitDx=0;exitDy=0;exitPerimeter=0;entryX=0;entryY=0.5;entryDx=0;entryDy=0;" parent="1" source="cz1an13Cb-ffX7jSRgFZ-3" target="cz1an13Cb-ffX7jSRgFZ-13" edge="1">
          <mxGeometry relative="1" as="geometry">
            <mxPoint x="1187" y="394.95238095238096" as="targetPoint" />
            <Array as="points">
              <mxPoint x="1136" y="519" />
            </Array>
          </mxGeometry>
        </mxCell>
        <mxCell id="cz1an13Cb-ffX7jSRgFZ-19" style="edgeStyle=orthogonalEdgeStyle;rounded=0;orthogonalLoop=1;jettySize=auto;html=1;exitX=0.34;exitY=0.82;exitDx=0;exitDy=0;exitPerimeter=0;entryX=0;entryY=0.5;entryDx=0;entryDy=0;" parent="1" source="cz1an13Cb-ffX7jSRgFZ-3" target="cz1an13Cb-ffX7jSRgFZ-14" edge="1">
          <mxGeometry relative="1" as="geometry">
            <Array as="points">
              <mxPoint x="1112" y="579" />
            </Array>
          </mxGeometry>
        </mxCell>
        <mxCell id="cz1an13Cb-ffX7jSRgFZ-20" style="edgeStyle=orthogonalEdgeStyle;rounded=0;orthogonalLoop=1;jettySize=auto;html=1;exitX=0.64;exitY=0.33;exitDx=0;exitDy=0;exitPerimeter=0;" parent="1" source="cz1an13Cb-ffX7jSRgFZ-3" target="cz1an13Cb-ffX7jSRgFZ-12" edge="1">
          <mxGeometry relative="1" as="geometry">
            <Array as="points">
              <mxPoint x="1136" y="439" />
            </Array>
          </mxGeometry>
        </mxCell>
        <mxCell id="cz1an13Cb-ffX7jSRgFZ-21" style="edgeStyle=orthogonalEdgeStyle;rounded=0;orthogonalLoop=1;jettySize=auto;html=1;exitX=0.34;exitY=0.17;exitDx=0;exitDy=0;exitPerimeter=0;entryX=0;entryY=0.5;entryDx=0;entryDy=0;" parent="1" source="cz1an13Cb-ffX7jSRgFZ-3" target="cz1an13Cb-ffX7jSRgFZ-11" edge="1">
          <mxGeometry relative="1" as="geometry">
            <Array as="points">
              <mxPoint x="1112" y="369" />
            </Array>
          </mxGeometry>
        </mxCell>
        <mxCell id="cz1an13Cb-ffX7jSRgFZ-3" value="&lt;div style=&quot;background-color:#1e1f22;color:#bcbec4&quot;&gt;&lt;pre style=&quot;font-family:&#39;JetBrains Mono&#39;,monospace;font-size:9,8pt;&quot;&gt;&lt;pre style=&quot;font-family:&#39;JetBrains Mono&#39;,monospace;font-size:9,8pt;&quot;&gt;&lt;br&gt;&lt;/pre&gt;&lt;/pre&gt;&lt;/div&gt;" style="triangle;whiteSpace=wrap;html=1;direction=south;rotation=-90;points=[[0,0.17,0,0,0],[0,0.4,0,0,0],[0,0.61,0,0,0],[0,0.82,0,0,0],[0.34,0.17,0,0,0],[0.34,0.82,0,0,0],[0.64,0.33,0,0,0],[0.64,0.69,0,0,0],[1,0.5,0,0,0]];" parent="1" vertex="1">
          <mxGeometry x="1085" y="420" width="80" height="80" as="geometry" />
        </mxCell>
        <mxCell id="cz1an13Cb-ffX7jSRgFZ-4" value="&lt;pre style=&quot;border-color: var(--border-color); font-family: &amp;quot;JetBrains Mono&amp;quot;, monospace;&quot;&gt;&lt;span style=&quot;background-color: rgb(255, 255, 255);&quot;&gt;&lt;b&gt;reqnotificationex&lt;/b&gt;&lt;/span&gt;&lt;/pre&gt;" style="text;strokeColor=none;align=center;fillColor=none;html=1;verticalAlign=middle;whiteSpace=wrap;rounded=0;fontColor=#000000;" parent="1" vertex="1">
          <mxGeometry x="1075" y="444" width="142" height="30" as="geometry" />
        </mxCell>
        <mxCell id="cz1an13Cb-ffX7jSRgFZ-8" style="edgeStyle=orthogonalEdgeStyle;rounded=0;orthogonalLoop=1;jettySize=auto;html=1;exitX=1;exitY=0.75;exitDx=0;exitDy=0;entryX=0;entryY=0.4;entryDx=0;entryDy=0;entryPerimeter=0;" parent="1" source="OGI2ZfjvUltXztTD1yBJ-2" target="cz1an13Cb-ffX7jSRgFZ-3" edge="1">
          <mxGeometry relative="1" as="geometry">
            <Array as="points">
              <mxPoint x="509" y="426" />
              <mxPoint x="509" y="452" />
            </Array>
          </mxGeometry>
        </mxCell>
        <mxCell id="cz1an13Cb-ffX7jSRgFZ-30" value="routekey = &quot;account&quot;" style="edgeLabel;html=1;align=center;verticalAlign=middle;resizable=0;points=[];" parent="cz1an13Cb-ffX7jSRgFZ-8" vertex="1" connectable="0">
          <mxGeometry x="0.8627" y="-2" relative="1" as="geometry">
            <mxPoint x="-154" y="-12" as="offset" />
          </mxGeometry>
        </mxCell>
        <mxCell id="cz1an13Cb-ffX7jSRgFZ-11" value="&lt;div style=&quot;&quot;&gt;&lt;pre style=&quot;font-family:&#39;JetBrains Mono&#39;,monospace;font-size:9,8pt;&quot;&gt;&lt;pre style=&quot;border-color: var(--border-color); font-family: &amp;quot;JetBrains Mono&amp;quot;, monospace;&quot;&gt;reqnotification&lt;/pre&gt;&lt;pre style=&quot;border-color: var(--border-color); font-family: &amp;quot;JetBrains Mono&amp;quot;, monospace;&quot;&gt;orchestra&lt;/pre&gt;&lt;/pre&gt;&lt;/div&gt;" style="shape=step;perimeter=stepPerimeter;whiteSpace=wrap;html=1;fixedSize=1;labelBackgroundColor=default;fontColor=#000000;fontStyle=1" parent="1" vertex="1">
          <mxGeometry x="1247" y="334" width="160" height="70" as="geometry" />
        </mxCell>
        <mxCell id="cz1an13Cb-ffX7jSRgFZ-12" value="&lt;div style=&quot;&quot;&gt;&lt;pre style=&quot;font-family:&#39;JetBrains Mono&#39;,monospace;font-size:9,8pt;&quot;&gt;reqnotificaion&lt;/pre&gt;&lt;pre style=&quot;font-family:&#39;JetBrains Mono&#39;,monospace;font-size:9,8pt;&quot;&gt;delivery&lt;/pre&gt;&lt;/div&gt;" style="shape=step;perimeter=stepPerimeter;whiteSpace=wrap;html=1;fixedSize=1;labelBackgroundColor=default;fontColor=#000000;fontStyle=1" parent="1" vertex="1">
          <mxGeometry x="1247" y="414" width="160" height="70" as="geometry" />
        </mxCell>
        <mxCell id="cz1an13Cb-ffX7jSRgFZ-13" value="&lt;div style=&quot;&quot;&gt;&lt;pre style=&quot;font-family:&#39;JetBrains Mono&#39;,monospace;font-size:9,8pt;&quot;&gt;reqnotificationacc&lt;/pre&gt;&lt;/div&gt;" style="shape=step;perimeter=stepPerimeter;whiteSpace=wrap;html=1;fixedSize=1;labelBackgroundColor=default;fontColor=#000000;fontStyle=1" parent="1" vertex="1">
          <mxGeometry x="1247" y="494" width="160" height="50" as="geometry" />
        </mxCell>
        <mxCell id="cz1an13Cb-ffX7jSRgFZ-14" value="&lt;div style=&quot;&quot;&gt;&lt;pre style=&quot;font-family:&#39;JetBrains Mono&#39;,monospace;font-size:9,8pt;&quot;&gt;reqnotificationauth&lt;/pre&gt;&lt;/div&gt;" style="shape=step;perimeter=stepPerimeter;whiteSpace=wrap;html=1;fixedSize=1;labelBackgroundColor=default;fontColor=#000000;fontStyle=1" parent="1" vertex="1">
          <mxGeometry x="1247" y="554" width="160" height="50" as="geometry" />
        </mxCell>
        <mxCell id="cz1an13Cb-ffX7jSRgFZ-15" style="edgeStyle=orthogonalEdgeStyle;rounded=0;orthogonalLoop=1;jettySize=auto;html=1;exitX=1;exitY=0.5;exitDx=0;exitDy=0;entryX=0;entryY=0.2;entryDx=0;entryDy=0;entryPerimeter=0;" parent="1" source="cz1an13Cb-ffX7jSRgFZ-11" target="cz1an13Cb-ffX7jSRgFZ-2" edge="1">
          <mxGeometry relative="1" as="geometry" />
        </mxCell>
        <mxCell id="cz1an13Cb-ffX7jSRgFZ-16" style="edgeStyle=orthogonalEdgeStyle;rounded=0;orthogonalLoop=1;jettySize=auto;html=1;exitX=1;exitY=0.5;exitDx=0;exitDy=0;entryX=0;entryY=0.4;entryDx=0;entryDy=0;entryPerimeter=0;" parent="1" source="cz1an13Cb-ffX7jSRgFZ-12" target="cz1an13Cb-ffX7jSRgFZ-2" edge="1">
          <mxGeometry relative="1" as="geometry">
            <Array as="points">
              <mxPoint x="1447" y="449" />
              <mxPoint x="1447" y="468" />
            </Array>
          </mxGeometry>
        </mxCell>
        <mxCell id="cz1an13Cb-ffX7jSRgFZ-17" style="edgeStyle=orthogonalEdgeStyle;rounded=0;orthogonalLoop=1;jettySize=auto;html=1;exitX=1;exitY=0.5;exitDx=0;exitDy=0;entryX=0;entryY=0.6;entryDx=0;entryDy=0;entryPerimeter=0;" parent="1" source="cz1an13Cb-ffX7jSRgFZ-13" target="cz1an13Cb-ffX7jSRgFZ-2" edge="1">
          <mxGeometry relative="1" as="geometry">
            <Array as="points">
              <mxPoint x="1447" y="519" />
              <mxPoint x="1447" y="480" />
            </Array>
          </mxGeometry>
        </mxCell>
        <mxCell id="cz1an13Cb-ffX7jSRgFZ-18" style="edgeStyle=orthogonalEdgeStyle;rounded=0;orthogonalLoop=1;jettySize=auto;html=1;exitX=1;exitY=0.5;exitDx=0;exitDy=0;entryX=0;entryY=0.8;entryDx=0;entryDy=0;entryPerimeter=0;" parent="1" source="cz1an13Cb-ffX7jSRgFZ-14" target="cz1an13Cb-ffX7jSRgFZ-2" edge="1">
          <mxGeometry relative="1" as="geometry" />
        </mxCell>
        <mxCell id="cz1an13Cb-ffX7jSRgFZ-23" style="edgeStyle=orthogonalEdgeStyle;rounded=0;orthogonalLoop=1;jettySize=auto;html=1;exitX=1;exitY=0.5;exitDx=0;exitDy=0;entryX=1;entryY=0.5;entryDx=0;entryDy=0;" parent="1" source="cz1an13Cb-ffX7jSRgFZ-22" target="OGI2ZfjvUltXztTD1yBJ-2" edge="1">
          <mxGeometry relative="1" as="geometry" />
        </mxCell>
        <mxCell id="cz1an13Cb-ffX7jSRgFZ-22" value="&lt;div style=&quot;&quot;&gt;&lt;pre style=&quot;font-family:&#39;JetBrains Mono&#39;,monospace;font-size:9,8pt;&quot;&gt;&lt;br&gt;&lt;/pre&gt;&lt;/div&gt;" style="shape=step;perimeter=stepPerimeter;whiteSpace=wrap;html=1;fixedSize=1;labelBackgroundColor=default;fontColor=#000000;fontStyle=1;rotation=-180;" parent="1" vertex="1">
          <mxGeometry x="688" y="386" width="120" height="50" as="geometry" />
        </mxCell>
        <mxCell id="cz1an13Cb-ffX7jSRgFZ-25" value="&lt;div style=&quot;&quot;&gt;&lt;pre style=&quot;font-family:&#39;JetBrains Mono&#39;,monospace;font-size:9,8pt;&quot;&gt;reqaccount&lt;/pre&gt;&lt;/div&gt;" style="text;strokeColor=none;align=center;fillColor=none;html=1;verticalAlign=middle;whiteSpace=wrap;rounded=0;fontColor=#000000;labelBackgroundColor=default;fontStyle=1" parent="1" vertex="1">
          <mxGeometry x="718" y="396" width="60" height="30" as="geometry" />
        </mxCell>
        <mxCell id="cz1an13Cb-ffX7jSRgFZ-26" value="&lt;div style=&quot;background-color:#1e1f22;color:#bcbec4&quot;&gt;&lt;pre style=&quot;font-family:&#39;JetBrains Mono&#39;,monospace;font-size:9,8pt;&quot;&gt;&lt;pre style=&quot;font-family:&#39;JetBrains Mono&#39;,monospace;font-size:9,8pt;&quot;&gt;&lt;br&gt;&lt;/pre&gt;&lt;/pre&gt;&lt;/div&gt;" style="triangle;whiteSpace=wrap;html=1;direction=south;rotation=-91;points=[[0,0.17,0,0,0],[0,0.4,0,0,0],[0,0.82,0,0,0],[0.34,0.17,0,0,0],[0.34,0.82,0,0,0],[0.5,1,0,0,0],[0.64,0.33,0,0,0],[0.64,0.69,0,0,0],[1,0.5,0,0,0]];" parent="1" vertex="1">
          <mxGeometry x="703" y="162" width="80" height="80" as="geometry" />
        </mxCell>
        <mxCell id="cz1an13Cb-ffX7jSRgFZ-28" value="&lt;pre style=&quot;border-color: var(--border-color);&quot;&gt;&lt;font face=&quot;JetBrains Mono, monospace&quot;&gt;&lt;b&gt;reqaccountex&lt;/b&gt;&lt;br&gt;&lt;/font&gt;&lt;/pre&gt;" style="text;strokeColor=none;align=center;fillColor=none;html=1;verticalAlign=middle;whiteSpace=wrap;rounded=0;fontColor=#000000;" parent="1" vertex="1">
          <mxGeometry x="677" y="186" width="142" height="30" as="geometry" />
        </mxCell>
        <mxCell id="w-dC9MA27nYraJP2hDXT-6" style="edgeStyle=orthogonalEdgeStyle;rounded=0;orthogonalLoop=1;jettySize=auto;html=1;exitX=1;exitY=0.5;exitDx=0;exitDy=0;entryX=0.25;entryY=1;entryDx=0;entryDy=0;" edge="1" parent="1" source="w-dC9MA27nYraJP2hDXT-1" target="TeWx9pcrd8z7VmYvdYut-1">
          <mxGeometry relative="1" as="geometry" />
        </mxCell>
        <mxCell id="w-dC9MA27nYraJP2hDXT-1" value="" style="shape=step;perimeter=stepPerimeter;whiteSpace=wrap;html=1;fixedSize=1;rotation=-180;" vertex="1" parent="1">
          <mxGeometry x="-652" y="847" width="115" height="46" as="geometry" />
        </mxCell>
        <mxCell id="w-dC9MA27nYraJP2hDXT-2" value="&lt;div style=&quot;&quot;&gt;&lt;pre style=&quot;font-family:&#39;JetBrains Mono&#39;,monospace;font-size:9,8pt;&quot;&gt;&lt;font style=&quot;font-size: 12px;&quot;&gt;entityorders&lt;/font&gt;&lt;/pre&gt;&lt;/div&gt;" style="text;strokeColor=none;align=center;fillColor=none;html=1;verticalAlign=middle;whiteSpace=wrap;rounded=0;fontColor=#000000;labelBackgroundColor=default;fontStyle=1" vertex="1" parent="1">
          <mxGeometry x="-629" y="855" width="60" height="30" as="geometry" />
        </mxCell>
        <mxCell id="w-dC9MA27nYraJP2hDXT-5" style="edgeStyle=orthogonalEdgeStyle;rounded=0;orthogonalLoop=1;jettySize=auto;html=1;exitX=1;exitY=0.5;exitDx=0;exitDy=0;entryX=0;entryY=0.5;entryDx=0;entryDy=0;" edge="1" parent="1" source="w-dC9MA27nYraJP2hDXT-3" target="w-dC9MA27nYraJP2hDXT-1">
          <mxGeometry relative="1" as="geometry">
            <Array as="points">
              <mxPoint x="-532" y="870" />
              <mxPoint x="-532" y="870" />
            </Array>
          </mxGeometry>
        </mxCell>
        <mxCell id="w-dC9MA27nYraJP2hDXT-3" value="&lt;div style=&quot;background-color:#1e1f22;color:#bcbec4&quot;&gt;&lt;pre style=&quot;font-family:&#39;JetBrains Mono&#39;,monospace;font-size:9,8pt;&quot;&gt;&lt;pre style=&quot;font-family:&#39;JetBrains Mono&#39;,monospace;font-size:9,8pt;&quot;&gt;&lt;br&gt;&lt;/pre&gt;&lt;/pre&gt;&lt;/div&gt;" style="triangle;whiteSpace=wrap;html=1;direction=south;rotation=90;" vertex="1" parent="1">
          <mxGeometry x="108" y="830" width="80" height="80" as="geometry" />
        </mxCell>
        <mxCell id="w-dC9MA27nYraJP2hDXT-4" value="&lt;pre style=&quot;border-color: var(--border-color); font-family: &amp;quot;JetBrains Mono&amp;quot;, monospace;&quot;&gt;entityordersexchange&lt;/pre&gt;" style="text;strokeColor=none;align=center;fillColor=none;html=1;verticalAlign=middle;whiteSpace=wrap;rounded=0;labelBackgroundColor=default;fontColor=#000000;fontStyle=1" vertex="1" parent="1">
          <mxGeometry x="50" y="910" width="180" height="30" as="geometry" />
        </mxCell>
        <mxCell id="w-dC9MA27nYraJP2hDXT-13" style="edgeStyle=orthogonalEdgeStyle;rounded=0;orthogonalLoop=1;jettySize=auto;html=1;exitX=1;exitY=0.5;exitDx=0;exitDy=0;entryX=0;entryY=0.5;entryDx=0;entryDy=0;" edge="1" parent="1" source="w-dC9MA27nYraJP2hDXT-8" target="w-dC9MA27nYraJP2hDXT-10">
          <mxGeometry relative="1" as="geometry">
            <Array as="points">
              <mxPoint x="618" y="655" />
              <mxPoint x="648" y="655" />
              <mxPoint x="648" y="699" />
            </Array>
          </mxGeometry>
        </mxCell>
        <mxCell id="w-dC9MA27nYraJP2hDXT-8" value="&lt;div style=&quot;background-color:#1e1f22;color:#bcbec4&quot;&gt;&lt;pre style=&quot;font-family:&#39;JetBrains Mono&#39;,monospace;font-size:9,8pt;&quot;&gt;&lt;pre style=&quot;font-family:&#39;JetBrains Mono&#39;,monospace;font-size:9,8pt;&quot;&gt;&lt;br&gt;&lt;/pre&gt;&lt;/pre&gt;&lt;/div&gt;" style="triangle;whiteSpace=wrap;html=1;direction=south;rotation=0;" vertex="1" parent="1">
          <mxGeometry x="578" y="554" width="80" height="80" as="geometry" />
        </mxCell>
        <mxCell id="w-dC9MA27nYraJP2hDXT-12" style="edgeStyle=orthogonalEdgeStyle;rounded=0;orthogonalLoop=1;jettySize=auto;html=1;exitX=1;exitY=0.5;exitDx=0;exitDy=0;entryX=1;entryY=0.25;entryDx=0;entryDy=0;" edge="1" parent="1" source="w-dC9MA27nYraJP2hDXT-10" target="OGI2ZfjvUltXztTD1yBJ-4">
          <mxGeometry relative="1" as="geometry">
            <Array as="points">
              <mxPoint x="508" y="699" />
              <mxPoint x="508" y="724" />
            </Array>
          </mxGeometry>
        </mxCell>
        <mxCell id="w-dC9MA27nYraJP2hDXT-10" value="" style="shape=step;perimeter=stepPerimeter;whiteSpace=wrap;html=1;fixedSize=1;rotation=-180;" vertex="1" parent="1">
          <mxGeometry x="518" y="676" width="115" height="46" as="geometry" />
        </mxCell>
        <mxCell id="w-dC9MA27nYraJP2hDXT-11" value="&lt;div style=&quot;&quot;&gt;&lt;pre style=&quot;font-family:&#39;JetBrains Mono&#39;,monospace;font-size:9,8pt;&quot;&gt;reqdelivery&lt;/pre&gt;&lt;/div&gt;" style="text;strokeColor=none;align=center;fillColor=none;html=1;verticalAlign=middle;whiteSpace=wrap;rounded=0;fontColor=#000000;labelBackgroundColor=default;fontStyle=1" vertex="1" parent="1">
          <mxGeometry x="541" y="684" width="60" height="30" as="geometry" />
        </mxCell>
        <mxCell id="w-dC9MA27nYraJP2hDXT-14" value="&lt;pre style=&quot;border-color: var(--border-color); font-family: &amp;quot;JetBrains Mono&amp;quot;, monospace;&quot;&gt;reqdeliveryex&lt;/pre&gt;" style="text;strokeColor=none;align=center;fillColor=none;html=1;verticalAlign=middle;whiteSpace=wrap;rounded=0;labelBackgroundColor=default;fontColor=#000000;fontStyle=1" vertex="1" parent="1">
          <mxGeometry x="460" y="591" width="180" height="30" as="geometry" />
        </mxCell>
      </root>
    </mxGraphModel>
  </diagram>
</mxfile>
